<svg width="1024" height="1024" xmlns="http://www.w3.org/2000/svg" version="1.1">

 <g>
  <title>Layer 1</title>
  <path id="svg_1" fill="#FEFBF2" d="m0,0c337.92,0 675.84,0 1024,0c0,337.92 0,675.84 0,1024c-337.92,0 -675.84,0 -1024,0c0,-337.92 0,-675.84 0,-1024z"/>
  <path id="svg_2" fill="#b2b2b2" d="m557,215c16.83,13.06 25.68,31.79 34.79,50.52c1.39,2.86 2.81,5.71 4.22,8.56c31.06,63.06 55.84,129.44 79.74,195.49c3,8.29 6.03,16.55 9.14,24.8c2.08,5.53 4.1,11.07 6.11,16.63c2.81,7.75 5.66,15.49 8.58,23.2c1.85,4.92 3.63,9.86 5.42,14.8c1.14,0.01 2.29,0.03 3.47,0.04c4.3,0.06 8.6,0.14 12.91,0.22c1.85,0.04 3.7,0.06 5.55,0.09c10.75,0.13 20.7,0.55 31.07,3.65c0.33,1.65 0.66,3.3 1,5c-4.78,2.23 -8.86,3.5 -14.15,4.17c-0.66,0.08 -1.31,0.17 -1.99,0.25c-1.38,0.18 -2.76,0.35 -4.14,0.52c-2.08,0.25 -4.17,0.51 -6.25,0.78c-6.86,0.87 -13.55,1.5 -20.47,1.28c7.68,22.49 15.91,44.83 24.63,66.94c1.76,4.47 3.47,8.96 5.14,13.47c2.95,7.91 6.02,15.77 9.09,23.64c16.17,41.34 16.17,41.34 22.76,61.83c0.35,1.02 0.69,2.05 1.05,3.11c2.6,8.34 4.28,17.87 0.95,26.26c-7.62,12.6 -24.89,21.59 -38.62,25.75c-5.22,0.92 -9.48,0.65 -14.19,-1.88c-33.67,-24.59 -48.65,-104.03 -62.81,-142.12c-0.62,-1.66 -0.62,-1.66 -1.25,-3.35c-3.19,-8.59 -6.38,-17.18 -9.56,-25.77c-0.45,-1.2 -0.89,-2.4 -1.35,-3.64c-1.27,-3.41 -2.53,-6.83 -3.8,-10.25c-0.38,-1.02 -0.76,-2.04 -1.15,-3.1c-1.7,-4.61 -3.38,-9.21 -4.89,-13.89c-17.73,-2.97 -36.24,-0.56 -54,1.06c-2.53,0.23 -5.06,0.45 -7.59,0.68c-8.14,0.73 -16.28,1.49 -24.41,2.26c-0.68,0.06 -1.36,0.13 -2.06,0.19c-42.87,4.06 -85.62,8.92 -128.36,14.16c-30.5,3.73 -30.5,3.73 -41.1,4.21c-3.01,0.53 -4.92,1.81 -7.48,3.44c-4.98,1.83 -9.74,2.22 -15,2c-0.37,1.2 -0.74,2.39 -1.12,3.62c-2.22,6.63 -5.07,12.99 -7.88,19.38c-0.58,1.33 -1.16,2.66 -1.74,3.99c-1.75,4 -3.5,8.01 -5.26,12.01c-0.52,1.18 -1.04,2.36 -1.57,3.58c-2.33,5.3 -4.66,10.6 -7,15.9c-1.75,3.98 -3.5,7.96 -5.22,11.95c-37.58,86.26 -37.58,86.26 -56.18,97.79c-4.2,1.61 -8.64,1.42 -13.03,0.78c-3.8,-2.71 -5.84,-5.48 -7,-10c-0.54,-13.68 4.7,-26.72 9.56,-39.31c0.54,-1.4 1.07,-2.81 1.6,-4.21c5.06,-13.25 10.4,-26.38 15.84,-39.48c0.57,-1.37 1.13,-2.74 1.7,-4.11c9.25,-22.37 18.71,-44.66 28.3,-66.89c-8.32,-0.12 -16.47,0.19 -24.75,1c-7.29,0.64 -14.56,1.24 -21.87,1.38c-1.3,0.02 -2.59,0.05 -3.92,0.08c-4.13,-0.55 -6.25,-1.85 -9.46,-4.46c-4.14,-6.35 -3.74,-13.64 -3,-21c1.47,-5.87 4.87,-9.21 9.61,-12.77c5.85,-3.01 12.39,-3.59 18.85,-4.05c0.79,-0.06 1.58,-0.12 2.39,-0.18c2.51,-0.2 5.02,-0.38 7.53,-0.56c1.64,-0.13 3.28,-0.26 4.92,-0.38c8.95,-0.69 17.89,-1.28 26.86,-1.69c1.95,-0.1 3.89,-0.23 5.84,-0.37c0.94,-0.07 1.88,-0.13 2.85,-0.2c2.36,-0.63 2.36,-0.63 3.55,-3.06c0.37,-0.99 0.73,-1.99 1.11,-3.01c0.63,-1.68 0.63,-1.68 1.28,-3.39c0.44,-1.23 0.88,-2.45 1.33,-3.72c0.49,-1.29 0.97,-2.58 1.46,-3.87c0.75,-1.99 1.51,-3.99 2.25,-5.98c2.22,-5.96 4.61,-11.83 7.05,-17.71c6.6,-16.08 12.95,-32.26 19.35,-48.42c0.91,-2.3 1.82,-4.6 2.73,-6.91c0.44,-1.11 0.88,-2.23 1.34,-3.38c3.89,-9.83 7.81,-19.64 11.74,-29.44c2.18,-5.43 4.34,-10.86 6.46,-16.31c8.81,-22.68 18.14,-45.14 27.5,-67.6c0.34,-0.81 0.67,-1.62 1.02,-2.45c6.73,-16.14 13.63,-32.19 20.86,-48.11c0.3,-0.67 0.6,-1.34 0.91,-2.02c4.22,-9.33 8.68,-18.51 13.31,-27.64c0.8,-1.59 1.6,-3.18 2.4,-4.77c13.24,-26.22 30.66,-56.43 60.06,-66.51c16.41,-4.92 32.17,-2.16 46.44,7.5z"/>
  <path id="svg_3" fill="#FDFAF2" d="m510,259.4375c4.28,0.8 6.74,2.73 9.22,6.34c1.34,2.29 2.57,4.61 3.78,6.97c0.47,0.92 0.94,1.83 1.43,2.78c12.77,25.44 21.9,52.77 31.51,79.52c1.1,3.07 2.21,6.15 3.32,9.23c7,19.44 13.98,38.9 20.87,58.38c11.15,31.46 22.53,62.84 34.27,94.08c0.35,0.93 0.7,1.86 1.06,2.82c1.64,4.37 3.29,8.73 4.95,13.1c0.58,1.54 1.16,3.09 1.75,4.63c0.26,0.68 0.52,1.37 0.79,2.07c1.57,4.17 2.88,8.34 4.05,12.64c-0.71,0.14 -1.42,0.27 -2.15,0.4c-0.92,0.18 -1.84,0.36 -2.79,0.54c-0.91,0.17 -1.83,0.35 -2.77,0.53c-2.24,0.31 -2.24,0.31 -3.29,1.53c-1.49,0.16 -2.99,0.26 -4.49,0.33c-0.98,0.05 -1.95,0.09 -2.95,0.14c-1.08,0.05 -2.16,0.1 -3.27,0.15c-2.34,0.11 -4.69,0.22 -7.03,0.33c-1.26,0.06 -2.52,0.12 -3.81,0.18c-6.75,0.32 -13.51,0.65 -20.26,0.99c-1.06,0.05 -1.06,0.05 -2.13,0.11c-15.82,0.79 -31.62,1.73 -47.42,2.71c-0.68,0.04 -1.35,0.08 -2.04,0.13c-8.24,0.51 -16.47,1.02 -24.7,1.54c-6.94,0.44 -13.87,0.87 -20.81,1.3c-21.03,1.31 -42.07,2.62 -63.1,4.01c-1.08,0.07 -2.17,0.14 -3.29,0.22c-5.02,0.33 -10.04,0.66 -15.06,1c-1.74,0.12 -3.49,0.23 -5.23,0.35c-0.77,0.05 -1.55,0.1 -2.34,0.16c-4.03,0.26 -8.03,0.41 -12.07,0.35c0.55,-6.11 2.46,-11.17 4.81,-16.81c0.35,-0.84 0.69,-1.68 1.04,-2.54c0.66,-1.6 1.32,-3.19 1.98,-4.79c1.37,-3.35 2.71,-6.71 4.06,-10.07c1.13,-2.84 2.27,-5.68 3.41,-8.53c4.77,-11.9 9.53,-23.8 14.29,-35.7c0.46,-1.14 0.91,-2.28 1.38,-3.46c4.08,-10.19 8.09,-20.4 12.08,-30.62c12.05,-30.67 24.35,-61.24 37.16,-91.6c1.23,-2.91 2.44,-5.82 3.67,-8.74c6.93,-16.52 14.09,-32.94 21.33,-49.34c0.74,-1.69 1.48,-3.38 2.23,-5.07c4.29,-9.78 8.75,-19.41 13.87,-28.79c0.4,-0.73 0.8,-1.47 1.2,-2.22c5.74,-10.2 5.74,-10.2 11.49,-11.28z"/>
 </g>
</svg>