<svg version="1.1" xmlns="http://www.w3.org/2000/svg" width="1024" height="1024">
<path d="M0 0 C337.92 0 675.84 0 1024 0 C1024 337.92 1024 675.84 1024 1024 C686.08 1024 348.16 1024 0 1024 C0 686.08 0 348.16 0 0 Z " fill="#FEFBF2" transform="translate(0,0)"/>
<path d="M0 0 C16.83 13.06 25.68 31.79 34.79 50.52 C36.18 53.38 37.6 56.23 39.01 59.08 C70.07 122.14 94.85 188.52 118.75 254.57 C121.75 262.86 124.78 271.12 127.89 279.37 C129.97 284.9 131.99 290.44 134 296 C136.81 303.75 139.66 311.49 142.58 319.2 C144.43 324.12 146.21 329.06 148 334 C149.14 334.01 150.29 334.03 151.47 334.04 C155.77 334.1 160.07 334.18 164.38 334.26 C166.23 334.3 168.08 334.32 169.93 334.35 C180.68 334.48 190.63 334.9 201 338 C201.33 339.65 201.66 341.3 202 343 C197.22 345.23 193.14 346.5 187.85 347.17 C187.19 347.25 186.54 347.34 185.86 347.42 C184.48 347.6 183.1 347.77 181.72 347.94 C179.64 348.19 177.55 348.45 175.47 348.72 C168.61 349.59 161.92 350.22 155 350 C162.68 372.49 170.91 394.83 179.63 416.94 C181.39 421.41 183.1 425.9 184.77 430.41 C187.72 438.32 190.79 446.18 193.86 454.05 C210.03 495.39 210.03 495.39 216.62 515.88 C216.97 516.9 217.31 517.93 217.67 518.99 C220.27 527.33 221.95 536.86 218.62 545.25 C211 557.85 193.73 566.84 180 571 C174.78 571.92 170.52 571.65 165.81 569.12 C132.14 544.53 117.16 465.09 103 427 C102.38 425.34 102.38 425.34 101.75 423.65 C98.56 415.06 95.37 406.47 92.19 397.88 C91.74 396.68 91.3 395.48 90.84 394.24 C89.57 390.83 88.31 387.41 87.04 383.99 C86.66 382.97 86.28 381.95 85.89 380.89 C84.19 376.28 82.51 371.68 81 367 C63.27 364.03 44.76 366.44 27 368.06 C24.47 368.29 21.94 368.51 19.41 368.74 C11.27 369.47 3.13 370.23 -5 371 C-5.68 371.06 -6.36 371.13 -7.06 371.19 C-49.93 375.25 -92.68 380.11 -135.42 385.35 C-165.92 389.08 -165.92 389.08 -176.52 389.56 C-179.53 390.09 -181.44 391.37 -184 393 C-188.98 394.83 -193.74 395.22 -199 395 C-199.37 396.2 -199.74 397.39 -200.12 398.62 C-202.34 405.25 -205.19 411.61 -208 418 C-208.58 419.33 -209.16 420.66 -209.74 421.99 C-211.49 425.99 -213.24 430 -215 434 C-215.52 435.18 -216.04 436.36 -216.57 437.58 C-218.9 442.88 -221.23 448.18 -223.57 453.48 C-225.32 457.46 -227.07 461.44 -228.79 465.43 C-266.37 551.69 -266.37 551.69 -284.97 563.22 C-289.17 564.83 -293.61 564.64 -298 564 C-301.8 561.29 -303.84 558.52 -305 554 C-305.54 540.32 -300.3 527.28 -295.44 514.69 C-294.9 513.29 -294.37 511.88 -293.84 510.48 C-288.78 497.23 -283.44 484.1 -278 471 C-277.43 469.63 -276.87 468.26 -276.3 466.89 C-267.05 444.52 -257.59 422.23 -248 400 C-256.32 399.88 -264.47 400.19 -272.75 401 C-280.04 401.64 -287.31 402.24 -294.62 402.38 C-295.92 402.4 -297.21 402.43 -298.54 402.46 C-302.67 401.91 -304.79 400.61 -308 398 C-312.14 391.65 -311.74 384.36 -311 377 C-309.53 371.13 -306.13 367.79 -301.39 364.23 C-295.54 361.22 -289 360.64 -282.54 360.18 C-281.75 360.12 -280.96 360.06 -280.15 360 C-277.64 359.8 -275.13 359.62 -272.62 359.44 C-270.98 359.31 -269.34 359.18 -267.7 359.06 C-258.75 358.37 -249.81 357.78 -240.84 357.37 C-238.89 357.27 -236.95 357.14 -235 357 C-234.06 356.93 -233.12 356.87 -232.15 356.8 C-229.79 356.17 -229.79 356.17 -228.6 353.74 C-228.23 352.75 -227.87 351.75 -227.49 350.73 C-226.86 349.05 -226.86 349.05 -226.21 347.34 C-225.77 346.11 -225.33 344.89 -224.88 343.62 C-224.39 342.33 -223.91 341.04 -223.42 339.75 C-222.67 337.76 -221.91 335.76 -221.17 333.77 C-218.95 327.81 -216.56 321.94 -214.12 316.06 C-207.52 299.98 -201.17 283.8 -194.77 267.64 C-193.86 265.34 -192.95 263.04 -192.04 260.73 C-191.6 259.62 -191.16 258.5 -190.7 257.35 C-186.81 247.52 -182.89 237.71 -178.96 227.91 C-176.78 222.48 -174.62 217.05 -172.5 211.6 C-163.69 188.92 -154.36 166.46 -145 144 C-144.66 143.19 -144.33 142.38 -143.98 141.55 C-137.25 125.41 -130.35 109.36 -123.12 93.44 C-122.82 92.77 -122.52 92.1 -122.21 91.42 C-117.99 82.09 -113.53 72.91 -108.9 63.78 C-108.1 62.19 -107.3 60.6 -106.5 59.01 C-93.26 32.79 -75.84 2.58 -46.44 -7.5 C-30.03 -12.42 -14.27 -9.66 0 0 Z " fill="#010101" transform="translate(557,215)"/>
<path d="M0 0 C4.28 0.8 6.74 2.73 9.22 6.34 C10.56 8.63 11.79 10.95 13 13.31 C13.47 14.23 13.94 15.14 14.43 16.09 C27.2 41.53 36.33 68.86 45.94 95.61 C47.04 98.68 48.15 101.76 49.26 104.84 C56.26 124.28 63.24 143.74 70.13 163.22 C81.28 194.68 92.66 226.06 104.4 257.3 C104.75 258.23 105.1 259.16 105.46 260.12 C107.1 264.49 108.75 268.85 110.41 273.22 C110.99 274.76 111.57 276.31 112.16 277.85 C112.42 278.53 112.68 279.22 112.95 279.92 C114.52 284.09 115.83 288.26 117 292.56 C116.29 292.7 115.58 292.83 114.85 292.96 C113.93 293.14 113.01 293.32 112.06 293.5 C111.15 293.67 110.23 293.85 109.29 294.03 C107.05 294.34 107.05 294.34 106 295.56 C104.51 295.72 103.01 295.82 101.51 295.89 C100.53 295.94 99.56 295.98 98.56 296.03 C97.48 296.08 96.4 296.13 95.29 296.18 C92.95 296.29 90.6 296.4 88.26 296.51 C87 296.57 85.74 296.63 84.45 296.69 C77.7 297.01 70.94 297.34 64.19 297.68 C63.13 297.73 63.13 297.73 62.06 297.79 C46.24 298.58 30.44 299.52 14.64 300.5 C13.96 300.54 13.29 300.58 12.6 300.63 C4.36 301.14 -3.87 301.65 -12.1 302.17 C-19.04 302.61 -25.97 303.04 -32.91 303.47 C-53.94 304.78 -74.98 306.09 -96.01 307.48 C-97.09 307.55 -98.18 307.62 -99.3 307.7 C-104.32 308.03 -109.34 308.36 -114.36 308.7 C-116.1 308.82 -117.85 308.93 -119.59 309.05 C-120.36 309.1 -121.14 309.15 -121.93 309.21 C-125.96 309.47 -129.96 309.62 -134 309.56 C-133.45 303.45 -131.54 298.39 -129.19 292.75 C-128.84 291.91 -128.5 291.07 -128.15 290.21 C-127.49 288.61 -126.83 287.02 -126.17 285.42 C-124.8 282.07 -123.46 278.71 -122.11 275.35 C-120.98 272.51 -119.84 269.67 -118.7 266.82 C-113.93 254.92 -109.17 243.02 -104.41 231.12 C-103.95 229.98 -103.5 228.84 -103.03 227.66 C-98.95 217.47 -94.94 207.26 -90.95 197.04 C-78.9 166.37 -66.6 135.8 -53.79 105.44 C-52.56 102.53 -51.35 99.62 -50.12 96.7 C-43.19 80.18 -36.03 63.76 -28.79 47.36 C-28.05 45.67 -27.31 43.98 -26.56 42.29 C-22.27 32.51 -17.81 22.88 -12.69 13.5 C-12.29 12.77 -11.89 12.03 -11.49 11.28 C-5.75 1.08 -5.75 1.08 0 0 Z " fill="#FDFAF2" transform="translate(510,259.4375)"/>
</svg>
