<svg width="400" height="150" xmlns="http://www.w3.org/2000/svg" version="1.1">

 <g>
  <title>Layer 1</title>
  <path id="svg_2" fill="#100E0C" d="m47.00003,13.00003c1.97,0.05 1.97,0.05 4,1c1.31,2.2 1.31,2.2 2.44,5.12c0.42,1.09 0.84,2.17 1.27,3.28c1.78,4.96 3.46,9.94 5.08,14.96c1.3,3.92 2.74,7.78 4.21,11.64c0.4,1.09 0.8,2.18 1.22,3.3c3.15,8.49 6.39,16.94 9.67,25.38c0.72,1.85 1.44,3.7 2.15,5.56c2.29,5.87 4.62,11.41 7.96,16.76c0.8,-0.02 1.61,-0.04 2.44,-0.06c2.56,0.06 2.56,0.06 3.56,1.06c0.31,2.38 0.31,2.38 0,5c-1.56,1.88 -1.56,1.88 -4,3c-3.44,0.19 -3.44,0.19 -7,-1c-4.48,-5.21 -6.87,-12.05 -9.31,-18.38c-0.36,-0.9 -0.72,-1.8 -1.09,-2.73c-2.6,-6.6 -2.6,-6.6 -2.6,-8.89c-11.88,0.33 -23.76,0.66 -36,1c-2.13,6.88 -2.13,6.88 -4.25,13.76c-1.8,5.73 -3.9,10.95 -6.75,16.24c-1.65,-0.33 -3.3,-0.66 -5,-1c0.33,-5.09 0.93,-9.32 3.13,-13.99c1.06,-2.44 1.79,-4.91 2.54,-7.46c2.59,-8.51 5.46,-16.92 8.34,-25.33c0.93,-2.71 1.85,-5.43 2.77,-8.14c2.91,-8.53 5.87,-17.02 9.21,-25.4c1.33,-3.53 2.36,-7.11 3.33,-10.75c0.68,-1.93 0.68,-1.93 2.68,-3.93z"/>
  <path id="svg_3" fill="#0E0C0B" d="m288.31253,44.75003c0.75,-0.02 1.49,-0.04 2.26,-0.06c4.87,-0.04 8.29,0.47 12.43,3.31c4.64,5.3 4.58,9.97 4.57,16.83c0.02,1.03 0.03,2.07 0.04,3.13c0.05,3.28 0.06,6.57 0.08,9.85c0.02,3.3 0.06,6.61 0.1,9.91c0.02,2.05 0.04,4.1 0.04,6.15c0.01,0.93 0.02,1.85 0.03,2.8c0,0.81 0,1.63 0.01,2.47c-0.08,1.87 -0.08,1.87 1.13,2.86c2,0.04 4,0.04 6,0c1.32,0 2.64,0 4,0c-0.25,2.37 -0.25,2.37 -1,5c-4.28,2.79 -9.08,2.93 -14,2c-3.54,-3.63 -4.53,-7.02 -5,-12c-0.39,0.52 -0.78,1.04 -1.18,1.57c-4.99,6.23 -10.38,10.5 -18.4,11.87c-5.7,0.27 -10.9,-0.8 -15.42,-4.44c-3.41,-4.61 -3.65,-8.4 -3.46,-14c0.76,-4.99 2.63,-7.77 6.46,-11c7.37,-5.04 15.15,-7.99 23.7,-10.32c4.91,-1.24 4.91,-1.24 8.3,-4.68c0.36,-2.74 0.36,-2.74 0.19,-5.69c-0.03,-0.99 -0.06,-1.99 -0.09,-3.01c-0.05,-1.14 -0.05,-1.14 -0.1,-2.3c-5.67,-3.78 -11.35,-3.66 -18,-3c-4.11,1.02 -7.47,2.65 -11,5c-0.04,2.33 -0.04,4.67 0,7c-0.66,0.66 -1.32,1.32 -2,2c-2.63,-0.37 -2.63,-0.37 -5,-1c-1.08,-4.8 -1.61,-7.88 0.81,-12.31c3.6,-3.65 8.41,-5.11 13.19,-6.69c3.79,-1.26 7.36,-1.22 11.31,-1.25z"/>
  <path id="svg_4" fill="#141210" d="m246.00003,47.00003c1.54,1.54 1.28,2.91 1.38,5.06c-0.09,10.39 -4.9,20.88 -8.49,30.51c-0.82,2.25 -1.59,4.52 -2.33,6.81c-5.45,16.51 -5.45,16.51 -8.56,19.62c-1.32,0 -2.64,0 -4,0c-4.17,-10.81 -8.3,-21.63 -12.1,-32.58c-1.21,-3.51 -2.49,-6.98 -3.9,-10.42c-0.27,0.8 -0.27,0.8 -0.54,1.63c-2.77,8.35 -5.66,16.65 -8.61,24.94c-0.77,2.19 -1.51,4.38 -2.24,6.58c-0.41,1.17 -0.82,2.34 -1.23,3.54c-0.35,1.01 -0.69,2.03 -1.04,3.07c-1.34,2.24 -1.34,2.24 -3.99,3.07c-0.77,0.06 -1.55,0.11 -2.35,0.17c-2.13,-3.34 -3.65,-6.48 -4.87,-10.25c-0.32,-0.99 -0.65,-1.99 -0.98,-3.01c-0.34,-1.05 -0.68,-2.1 -1.03,-3.18c-0.7,-2.17 -1.42,-4.34 -2.13,-6.51c-0.34,-1.04 -0.68,-2.08 -1.03,-3.16c-1.55,-4.66 -3.19,-9.28 -4.88,-13.89c-0.74,-2.07 -1.45,-4.16 -2.13,-6.25c-0.33,-1.01 -0.67,-2.02 -1.01,-3.06c-0.28,-0.89 -0.56,-1.77 -0.85,-2.68c-0.91,-2.17 -0.91,-2.17 -3.04,-2.83c-2.51,-0.22 -4.61,0.21 -7.05,0.82c0.35,-2.56 0.75,-4.58 2.06,-6.81c2.56,-1.57 4.95,-1.6 7.9,-1.69c3.01,0.74 4.12,2.11 6.04,4.5c1.34,3 1.34,3 2.5,6.44c0.21,0.62 0.42,1.23 0.64,1.87c1.69,5.02 3.22,10.09 4.75,15.16c2.17,6.91 4.66,13.71 7.11,20.53c2.34,-3.52 3.47,-7.11 4.75,-11.1c0.53,-1.62 1.06,-3.24 1.59,-4.86c0.84,-2.56 1.66,-5.12 2.49,-7.67c0.8,-2.47 1.61,-4.94 2.42,-7.41c0.37,-1.15 0.37,-1.15 0.75,-2.32c1.77,-5.41 1.77,-5.41 4,-7.64c2.44,0.06 2.44,0.06 5,1c2.4,3.44 3.82,6.94 5.16,10.89c0.57,1.69 0.57,1.69 1.16,3.4c0.58,1.74 0.58,1.74 1.18,3.52c2.95,11.83 2.95,11.83 8.5,22.19c2.8,-7.09 4.97,-14.32 7.12,-21.62c0.36,-1.21 0.72,-2.41 1.09,-3.65c0.52,-1.74 0.52,-1.74 1.05,-3.52c0.46,-1.57 0.46,-1.57 0.94,-3.18c0.79,-3 1.34,-5.96 1.8,-9.03c-1.32,0 -2.64,0 -4,0c-0.25,-2.31 -0.25,-2.31 0,-5c3.25,-3.9 6.37,-3.05 11,-2z"/>
  <path id="svg_5" fill="#0F0D0B" d="m336.00003,47.00003c4.1,3.54 6.02,6.7 7.9,11.74c0.37,0.97 0.37,0.97 0.74,1.96c0.78,2.05 1.54,4.11 2.3,6.18c0.75,2.01 1.51,4.02 2.27,6.04c0.5,1.34 1,2.68 1.5,4.02c1.29,3.45 2.61,6.89 4.01,10.31c0.27,0.68 0.55,1.36 0.84,2.07c0.77,1.89 1.56,3.78 2.34,5.67c1.1,3.01 1.1,3.01 1.1,6.01c0.66,0 1.32,0 2,0c0.24,-0.79 0.48,-1.57 0.73,-2.38c1.62,-4.63 3.61,-9.07 5.58,-13.56c4.36,-10.03 8.75,-20.24 10.69,-31.06c-1.98,0 -3.96,0 -6,0c-0.5,-2.48 -0.5,-2.48 -1,-5c3.23,-2.15 4.31,-2.3 8.06,-2.31c0.88,-0.02 1.76,-0.04 2.66,-0.05c0.75,0.12 1.51,0.24 2.28,0.36c2.53,3.79 2.35,5.49 2,10c-0.73,3.06 -1.74,5.98 -2.81,8.94c-0.31,0.86 -0.62,1.71 -0.93,2.6c-19.8,53.8 -19.8,53.8 -38.26,64.46c-4.25,1.38 -8.59,1.56 -13,1c-3.06,-1.62 -3.06,-1.62 -5,-4c-0.44,-3.12 -0.44,-3.12 0,-6c0.99,-0.99 0.99,-0.99 2,-2c2,0.19 2,0.19 4,1c0.66,0.99 1.32,1.98 2,3c6.07,-0.03 10.02,-0.9 14.42,-5.19c5.04,-5.55 5.04,-5.55 6.4,-12.56c-0.99,-3.93 -2.41,-7.53 -4.01,-11.25c-0.31,-0.75 -0.62,-1.49 -0.95,-2.26c-1.94,-4.62 -3.93,-9.21 -5.92,-13.8c-2.51,-5.8 -4.75,-11.66 -6.85,-17.61c-1.28,-3.55 -2.62,-6.46 -5.09,-9.33c-2.64,0.33 -5.28,0.66 -8,1c-0.25,-2.31 -0.25,-2.31 0,-5c2.99,-3.61 7.62,-4.24 12,-3z"/>
  <path id="svg_6" fill="#0E0D0B" d="m141.81253,46.68753c4.68,3.39 7.49,6.79 9.19,12.31c0.27,3.23 0.23,6.44 0.19,9.68c0,0.92 0,1.85 -0.01,2.8c-0.01,2.95 -0.03,5.89 -0.06,8.83c-0.01,2.01 -0.02,4.01 -0.02,6.01c-0.03,4.89 -0.06,9.79 -0.1,14.68c2.31,0 4.62,0 7,0c-0.75,4.75 -0.75,4.75 -3,7c-2.1,0.27 -2.1,0.27 -4.5,0.25c-0.8,0.01 -1.59,0.01 -2.41,0.02c-2.09,-0.27 -2.09,-0.27 -4.09,-2.27c-0.26,-1.91 -0.26,-1.91 -0.27,-4.26c-0.01,-0.88 -0.02,-1.76 -0.03,-2.67c-0.01,-0.96 -0.01,-1.91 -0.01,-2.9c-0.03,-2.01 -0.05,-4.03 -0.08,-6.05c-0.03,-3.18 -0.05,-6.36 -0.07,-9.55c-0.02,-3.07 -0.06,-6.14 -0.1,-9.21c0,-0.95 0,-1.89 0,-2.87c-0.08,-5.23 -0.49,-8.97 -3.44,-13.49c-4.15,-2.97 -9.12,-2.61 -14,-2c-8.25,3.97 -12.61,11.24 -15.95,19.46c-1.92,6.46 -1.76,12.99 -1.74,19.67c-0.01,2.11 -0.02,4.22 -0.05,6.33c-0.02,1.88 -0.02,3.77 -0.02,5.66c-0.24,2.88 -0.24,2.88 -2.24,4.88c-3.54,-0.53 -3.54,-0.53 -5,-2c-0.1,-1.69 -0.12,-3.38 -0.12,-5.07c0,-1.62 0,-1.62 0,-3.27c0.01,-1.18 0.01,-2.36 0.02,-3.57c0,-1.19 0,-2.39 0,-3.63c0.01,-3.84 0.02,-7.68 0.03,-11.52c0.01,-2.6 0.01,-5.19 0.02,-7.79c0.01,-6.38 0.03,-12.77 0.05,-19.15c-0.77,0.66 -1.53,1.32 -2.31,2c-2.69,2 -2.69,2 -5.69,2c0.19,-3.31 0.19,-3.31 1,-7c2.73,-2.42 4.51,-2.94 8.12,-3.37c2.88,0.37 2.88,0.37 4.51,1.54c1.86,2.5 1.87,4.44 2.06,7.52c0.09,1.49 0.09,1.49 0.19,3.01c0.04,0.76 0.08,1.52 0.12,2.3c0.67,-0.9 0.67,-0.9 1.35,-1.83c7.37,-9.74 18.66,-19.21 31.46,-12.48z"/>
  <path id="svg_7" fill="#ffffff" d="m48.00003,28.00003c3.37,1.69 3.83,5.58 5,8.98c0.29,0.81 0.57,1.61 0.86,2.44c0.6,1.71 1.2,3.42 1.79,5.13c0.9,2.61 1.82,5.22 2.74,7.82c0.58,1.66 1.16,3.32 1.74,4.99c0.27,0.77 0.54,1.55 0.83,2.34c0.25,0.74 0.5,1.48 0.76,2.24c0.23,0.64 0.45,1.28 0.68,1.94c0.75,2.65 1.15,5.4 1.6,8.12c-10.23,0 -20.46,0 -31,0c7.72,-25.73 7.72,-25.73 11.09,-33.8c1.4,-3.37 2.64,-6.78 3.91,-10.2z"/>
  <path id="svg_8" fill="#ffffff" d="m301.00003,74.00003c-0.67,10.6 -3.97,18.78 -12,26c-5.19,3.02 -9.15,3.57 -15,3c-4.57,-2.14 -4.57,-2.14 -6,-5c-0.48,-4.8 -0.59,-7 1.88,-11.19c6.67,-6.86 21.49,-12.81 31.12,-12.81z"/>
  <path id="svg_9" fill="#0F0D0B" d="m288.31253,44.75003c0.75,-0.02 1.49,-0.04 2.26,-0.06c4.87,-0.04 8.29,0.47 12.43,3.31c4.47,4.93 4.51,9.07 4.25,15.37c-0.02,0.84 -0.04,1.67 -0.06,2.52c-0.04,2.04 -0.12,4.08 -0.19,6.11c-0.33,0 -0.66,0 -1,0c-0.5,-7.43 -0.5,-7.43 -1,-15c-0.66,0.66 -1.32,1.32 -2,2c-0.66,-0.33 -1.32,-0.66 -2,-1c0,2.97 0,5.94 0,9c-0.99,0 -1.98,0 -3,0c0.49,-0.5 0.49,-0.5 1,-1c0.07,-1.85 0.08,-3.71 0.06,-5.56c-0.01,-1.01 -0.02,-2.03 -0.03,-3.07c-0.01,-0.78 -0.02,-1.56 -0.03,-2.37c-5.67,-3.78 -11.35,-3.66 -18,-3c-4.11,1.02 -7.47,2.65 -11,5c-0.04,2.33 -0.04,4.67 0,7c-0.66,0.66 -1.32,1.32 -2,2c-2.63,-0.37 -2.63,-0.37 -5,-1c-1.08,-4.8 -1.61,-7.88 0.81,-12.31c3.6,-3.65 8.41,-5.11 13.19,-6.69c3.79,-1.26 7.36,-1.22 11.31,-1.25z"/>
  <path id="svg_10" fill="#0F0D0B"
      d="m149.00003,60.00003c0,13.86 0,27.72 0,42c4.46,-0.5 4.46,-0.5 9,-1c-0.75,4.75 -0.75,4.75 -3,7c-2.09,0.27 -2.09,0.27 -4.5,0.25c-0.79,0.01 -1.59,0.01 -2.41,0.02c-2.09,-0.27 -2.09,-0.27 -4.09,-2.27c-0.24,-1.91 -0.24,-1.91 -0.23,-4.27c0,-0.88 0,-1.76 0,-2.67c0.01,-0.95 0.02,-1.9 0.03,-2.88c0.01,-0.97 0.01,-1.95 0.01,-2.95c0.01,-3.12 0.04,-6.24 0.07,-9.35c0.01,-2.12 0.01,-4.23 0.02,-6.34c0.02,-5.18 0.06,-10.36 0.1,-15.54c3.88,-2 3.88,-2 5,-2z" />
  <path id="svg_11" fill="#0F0D0B"
      d="m297.00003,68.00003c0,3 0,3 -1.5,4.69c-0.5,0.43 -0.99,0.86 -1.5,1.31c1.32,0.33 2.64,0.66 4,1c-0.85,0.27 -0.85,0.27 -1.71,0.55c-2.6,0.84 -5.2,1.71 -7.79,2.57c-1.33,0.43 -1.33,0.43 -2.69,0.86c-7.46,2.53 -14.75,6.02 -18.69,13.21c-0.36,0.65 -0.73,1.3 -1.11,1.98c-0.33,0.6 -0.67,1.21 -1.01,1.83c-0.66,0.99 -1.32,1.98 -2,3c-0.66,0 -1.32,0 -2,0c-0.58,-5.2 -0.77,-9.69 2.19,-14.19c7.45,-8.61 19.1,-11.85 29.67,-14.86c2.98,-0.63 2.98,-0.63 4.14,-1.95z" />
  <path id="svg_12" fill="#0F0D0B"
      d="m26.00003,70.00003c0.69,2.49 1,4.38 1,7c0.99,0.66 1.98,1.32 3,2c-2.13,10.46 -4.84,20.6 -10,30c-1.65,-0.33 -3.3,-0.66 -5,-1c0.33,-5.06 0.9,-9.3 3.11,-13.93c1.64,-3.82 2.71,-7.84 3.91,-11.82c1.24,-4.12 2.6,-8.18 3.98,-12.25z" />
  <path id="svg_13" fill="#0F0D0B"
      d="m141.81253,46.68753c4.67,3.39 7.49,6.79 9.19,12.31c0.27,3.3 0.23,6.59 0.19,9.9c0,0.94 0,1.89 -0.01,2.87c-0.01,3.01 -0.03,6.03 -0.06,9.04c-0.01,2.05 -0.02,4.1 -0.02,6.15c-0.03,5.02 -0.06,10.03 -0.1,15.04c-0.66,0 -1.32,0 -2,0c-0.63,-13.34 -1.18,-26.64 -1,-40c-0.8,-0.1 -1.59,-0.21 -2.4,-0.31c-0.86,-0.23 -1.72,-0.46 -2.6,-0.69c-1.05,-1.97 -2.05,-3.97 -3,-6c-3.41,-2.64 -7.84,-2.58 -12,-3c0,-0.33 0,-0.66 0,-1c3.46,-0.49 3.46,-0.49 7,-1c0,-1.32 0,-2.64 0,-4c-4.95,1.49 -4.95,1.49 -10,3c-0.66,-0.66 -1.32,-1.32 -2,-2c6.21,-2.55 12.7,-3.55 18.81,-0.31z" />
  <path id="svg_14" fill="#0F0D0B"
      d="m214.00003,77.00003c0.66,0 1.32,0 2,0c0.33,0.66 0.66,1.32 1,2c0.66,0 1.32,0 2,0c0.11,0.63 0.22,1.25 0.33,1.9c0.16,0.82 0.32,1.63 0.48,2.48c0.15,0.81 0.3,1.62 0.46,2.46c0.61,2.52 0.61,2.52 3.73,4.16c0.87,3.92 1.38,7.17 0,11c0.66,-0.33 1.32,-0.66 2,-1c0.66,-0.33 1.32,-0.66 2,-1c0.66,-3.03 0.66,-3.03 1,-6c0.66,0.66 1.32,1.32 2,2c0.66,-0.33 1.32,-0.66 2,-1c0.48,4.85 -0.65,8.06 -2.64,12.36c-1.86,2.24 -3.55,2.18 -6.36,2.64c-1.29,-3.37 -2.58,-6.75 -3.88,-10.12c-0.36,-0.96 -0.72,-1.91 -1.1,-2.89c-5.32,-13.92 -5.32,-13.92 -5.02,-18.99z" />
  <path id="svg_15" fill="#0F0D0B"
      d="m71.00003,89.00003c0.66,0 1.32,0 2,0c0.66,0.99 1.32,1.98 2,3c1.65,-0.33 3.3,-0.66 5,-1c1.65,2.97 3.3,5.94 5,9c1.65,0 3.3,0 5,0c1,1 1,1 1.31,3.38c-0.31,2.62 -0.31,2.62 -1.87,4.5c-3.69,1.7 -5.61,1.4 -9.44,0.12c-2.21,-2.4 -3.58,-5.08 -5,-8c-0.39,-0.81 -0.79,-1.62 -1.2,-2.46c-2.8,-6.06 -2.8,-6.06 -2.8,-8.54z" />
  <path id="svg_16" fill="#0F0D0B"
      d="m29.00003,67.00003c1.32,0 2.64,0 4,0c0,1.98 0,3.96 0,6c7.92,0 15.84,0 24,0c-0.33,1.32 -0.66,2.64 -1,4c-1.19,0.06 -2.39,0.12 -3.62,0.18c-1.61,0.09 -3.21,0.17 -4.82,0.26c-0.82,0.04 -1.65,0.08 -2.5,0.13c-4.19,0.23 -8.33,0.53 -12.5,1.12c-3.56,0.31 -3.56,0.31 -6.56,-1.69c0.75,-7.75 0.75,-7.75 3,-10z" />
  <path id="svg_17" fill="#0F0D0B"
      d="m306.00003,72.00003c0.33,0 0.66,0 1,0c0.03,0.87 0.05,1.75 0.08,2.65c0.09,3.23 0.19,6.46 0.29,9.69c0.05,1.39 0.09,2.79 0.13,4.19c0.05,2.01 0.12,4.02 0.18,6.03c0.04,1.21 0.08,2.42 0.11,3.66c-0.1,2.69 -0.1,2.69 1.21,3.78c2,0.04 4,0.04 6,0c1.32,0 2.64,0 4,0c-0.25,2.38 -0.25,2.38 -1,5c-3.02,2.01 -5.54,2.27 -9.12,2.25c-1.31,0.01 -1.31,0.01 -2.64,0.02c-2.24,-0.27 -2.24,-0.27 -4.24,-2.27c-0.31,-2.88 -0.31,-2.88 0,-6c0.49,-0.6 0.98,-1.21 1.49,-1.83c1.95,-2.8 1.94,-4.64 2.02,-8.03c0.04,-1.11 0.07,-2.23 0.11,-3.38c0.02,-1.16 0.04,-2.32 0.07,-3.51c0.03,-1.17 0.07,-2.35 0.1,-3.56c0.08,-2.9 0.15,-5.79 0.21,-8.69z" />
 </g>
</svg>
